<?xml version="1.0" encoding="utf-8"?>
<!-- Generator: Adobe Illustrator 21.1.0, SVG Export Plug-In . SVG Version: 6.00 Build 0)  -->
<svg version="1.1" id="Design" xmlns="http://www.w3.org/2000/svg" xmlns:xlink="http://www.w3.org/1999/xlink" x="0px" y="0px"
	 viewBox="0 0 300.9 74.6" enable-background="new 0 0 300.9 74.6" xml:space="preserve">
<g id="Resistor">
	<rect id="Lead" y="31.7" fill="#BBBDBF" width="300.9" height="11.3"/>
	<path id="BG" fill="#7ED0FC" d="M242.4,37.3L242.4,37.3C242.4,16.7,225.6,0,205,0c-30,0-27.7,8.9-54.8,8.9
		C123.2,8.9,125.5,0,95.5,0C74.9,0,58.1,16.7,58.1,37.3v0v0c0,20.6,16.7,37.3,37.3,37.3c30,0,27.7-8.9,54.8-8.9
		c27.1,0,24.8,8.9,54.8,8.9C225.6,74.6,242.4,57.9,242.4,37.3L242.4,37.3z"/>
	<g id="Bands">
		<defs>
			<path id="SVGID_1_" d="M242.4,37.3L242.4,37.3C242.4,16.7,225.6,0,205,0c-30,0-27.7,8.9-54.8,8.9C123.2,8.9,125.5,0,95.5,0
				C74.9,0,58.1,16.7,58.1,37.3v0v0c0,20.6,16.7,37.3,37.3,37.3c30,0,27.7-8.9,54.8-8.9c27.1,0,24.8,8.9,54.8,8.9
				C225.6,74.6,242.4,57.9,242.4,37.3L242.4,37.3z"/>
		</defs>
		<clipPath id="SVGID_2_">
			<use xlink:href="#SVGID_1_"  overflow="visible"/>
		</clipPath>
		<path id="Band_5" clip-path="url(#SVGID_2_)" fill="#664838" d="M200.2,88.2c1.4,0,2.7,0.1,4.3,0.1c3,0,5.9-0.3,8.8-0.9V-12.8
			c-2.8-0.5-5.8-0.9-8.8-0.9c-1.5,0-2.9,0-4.3,0.1V88.2z"/>
		<path id="Band_4" clip-path="url(#SVGID_2_)" fill="#F44336" d="M172,80.8c4.2,1.5,8.2,3,13,4.3v-95.6c-4.8,1.3-8.8,2.9-13,4.3
			V80.8z"/>
		<path id="Band_3" clip-path="url(#SVGID_2_)" fill="#262626" d="M143.7,76.3c2-0.1,4.2-0.2,6.5-0.2c2.3,0,4.5,0.1,6.5,0.2V-1.6
			c-2,0.1-4.2,0.2-6.5,0.2c-2.3,0-4.5-0.1-6.5-0.2V76.3z"/>
		<path id="Band_2" clip-path="url(#SVGID_2_)" fill="#262626" d="M115.5,85.1c4.8-1.3,8.8-2.9,13-4.3v-87c-4.2-1.5-8.2-3-13-4.3
			V85.1z"/>
		<path id="Band_1" clip-path="url(#SVGID_2_)" fill="#664838" d="M87.2,87.4c2.8,0.5,5.8,0.9,8.8,0.9c1.5,0,2.9,0,4.3-0.1V-13.6
			c-1.4,0-2.8-0.1-4.3-0.1c-3,0-5.9,0.3-8.8,0.9V87.4z"/>
	</g>
</g>
</svg>
